<svg width="351" height="733" viewBox="0 0 351 733" fill="none" xmlns="http://www.w3.org/2000/svg">
<path d="M-170.471 361.521L-143.198 420.003L15.1252 416.13L20.2626 398.363L-170.471 361.521Z" stroke="black" stroke-width="4" stroke-miterlimit="10"/>
<path d="M-133.869 176.104L-187.828 284.895L-170.472 361.522L-143.198 420.004L-60.1117 570.38L63.2236 654.399L99.9133 650.787L128.23 640.197L156.546 629.607L187.273 608.005L233.591 460.536L209.298 288.171L195.907 224.497L164.097 153.276L57.6993 104.458" stroke="black" stroke-width="4" stroke-miterlimit="10"/>
<path d="M99.9136 650.787L105.149 666.522" stroke="black" stroke-width="4" stroke-miterlimit="10"/>
<path d="M-48.0304 606.693L-60.1115 570.381L15.1251 416.132" stroke="black" stroke-width="4" stroke-miterlimit="10"/>
<path d="M-149.098 139.29L-133.871 176.102L20.2607 398.362L99.9116 650.785" stroke="black" stroke-width="4" stroke-miterlimit="10"/>
<path d="M195.907 224.497L209.298 288.171L83.7036 390.482L69.1888 380.065L195.907 224.497Z" stroke="black" stroke-width="4" stroke-miterlimit="10"/>
<path d="M-59.3021 76.5431L47.7717 65.662L149.226 103.205L216.89 218.252L247.094 493.544L191.724 621.382L162.943 644.906L133.464 655.931L104.006 666.948L67.6745 667.776L-51.0932 605.065L-190.506 370.617L-205.879 236.014L-149.097 139.29L-59.3021 76.5431Z" stroke="black" stroke-width="4" stroke-miterlimit="10"/>
<path d="M191.724 621.384L187.273 608.005L69.1892 380.065L39.3397 373.025L20.2626 398.364L63.2238 654.399L67.6751 667.778" stroke="black" stroke-width="4" stroke-miterlimit="10"/>
<path d="M156.545 629.605L161.78 645.341" stroke="black" stroke-width="4" stroke-miterlimit="10"/>
<path d="M216.891 218.254L195.908 224.497" stroke="black" stroke-width="4" stroke-miterlimit="10"/>
<path d="M149.226 103.206L164.096 153.275" stroke="black" stroke-width="4" stroke-miterlimit="10"/>
<path d="M245.673 496.848L233.591 460.536L83.7043 390.482" stroke="black" stroke-width="4" stroke-miterlimit="10"/>
<path d="M47.7707 65.6613L57.6979 104.456L69.1876 380.063L156.544 629.605" stroke="black" stroke-width="4" stroke-miterlimit="10"/>
<path d="M57.6995 104.458L-44.4949 121.048L-133.869 176.104" stroke="black" stroke-width="4" stroke-miterlimit="10"/>
<path d="M-59.302 76.543L-44.4954 121.046L39.3393 373.024" stroke="black" stroke-width="4" stroke-miterlimit="10"/>
</svg>
