<svg width="40" height="40" viewBox="0 0 40 40" fill="none" xmlns="http://www.w3.org/2000/svg">
<path d="M4.16663 29.8015C5.77401 30.6902 17.4095 37.3974 25.6832 32.228C33.9569 27.0586 33.5005 18.1524 33.5005 14.0713C34.25 12.5012 35.8333 11.7029 35.8333 7.45284C34.278 8.88951 32.7322 9.37834 31.1958 8.91934C29.6905 6.62431 27.6195 5.60923 24.9828 5.87412C21.0277 6.27146 19.5807 10.1518 20.0065 15.1719C13.9082 18.2558 9.12621 12.9363 6.66178 8.91934C5.83835 12.0829 5.04438 15.881 6.66178 20.0826C7.74004 22.8836 10.332 25.2517 14.4378 27.1868C10.2769 29.442 6.85314 30.3135 4.16663 29.8015Z" stroke="black" stroke-width="2" stroke-linejoin="round"/>
</svg>
