<svg width="40" height="40" viewBox="0 0 40 40" fill="none" xmlns="http://www.w3.org/2000/svg">
<path d="M9.21975 8.67834C13.8391 8.44809 17.4319 8.33301 19.9983 8.33301C22.5651 8.33301 26.1592 8.44817 30.7808 8.67842C33.2826 8.80309 35.306 10.7596 35.5147 13.2557C35.726 15.784 35.8317 18.0108 35.8317 19.9362C35.8317 21.8852 35.7234 24.143 35.5068 26.7098C35.2988 29.1749 33.3194 31.1173 30.8508 31.2788C26.8997 31.5372 23.2822 31.6663 19.9983 31.6663C16.715 31.6663 13.0988 31.5372 9.14983 31.2789C6.6821 31.1175 4.70308 29.1763 4.49406 26.7122C4.27471 24.1262 4.16504 21.8675 4.16504 19.9362C4.16504 18.0281 4.27209 15.8005 4.48621 13.2533H4.48621C4.69595 10.7583 6.71895 8.80301 9.21975 8.67834Z" stroke="black" stroke-width="2" stroke-linejoin="round"/>
<path d="M17.5 16.3413V23.672C17.5 24.0665 17.8198 24.3862 18.2142 24.3862C18.3543 24.3862 18.4913 24.3451 18.6082 24.2679L24.1062 20.6341C24.4353 20.4166 24.5257 19.9734 24.3082 19.6443C24.2562 19.5657 24.1891 19.4981 24.1108 19.4454L18.6128 15.7486C18.2855 15.5284 17.8417 15.6154 17.6215 15.9427C17.5423 16.0606 17.5 16.1993 17.5 16.3413Z" stroke="black" stroke-width="2" stroke-linejoin="round"/>
</svg>
